:version 1.10
:name ASF
:units
  mass 1
  length 1
  angle deg
:documentation
  ASF file generated by Kaydara
:root
  axis xyz
  order  tx ty tz rx ry rz
  position 0 0 0
  orientation 0 0 0
:bonedata
  begin
    id 1
    name LeftUpLegDummy
    direction 1 -2.30186e-007 -8.31532e-007
    length 2.93387
    axis 0 0 0 xyz
  end
  begin
    id 2
    name LeftUpLeg
    direction -1.82929e-007 -1 -1.48925e-009
    length 17.3336
    axis -3.48766 0.00143442 -0.000521554 xyz
    dof rx ry rz
  end
  begin
    id 3
    name LeftLeg
    direction -1.82929e-007 -1 -5.23717e-011
    length 14.9995
    axis 3.68178 -0.00654042 -0.000282425 xyz
    dof rx ry rz
  end
  begin
    id 4
    name LeftFoot
    direction 8.31532e-007 -4.54534e-011 1
    length 6.74421
    axis 1.87234e-006 4.66016e-005 -5.96866e-006 xyz
    dof rx ry rz
  end
  begin
    id 5
    name LeftToes
    direction 0.00818058 -0.00485161 0.999955
    length 3.85048
    axis 1.06247e-005 4.65869e-005 -5.96999e-006 xyz
    dof rx ry rz
  end
  begin
    id 6
    name SpineDummy
    direction -5.8607e-008 0.943407 -0.331637
    length 5.93572
    axis 0 0 0 xyz
  end
  begin
    id 7
    name Spine
    direction -1.04988e-007 0.999988 0.00495137
    length 10.1015
    axis -0.001389 0.000121417 6.61666e-006 xyz
    dof rx ry rz
  end
  begin
    id 8
    name Spine1
    direction 0 0 0
    length 0
    axis -0.001389 0.00012144 6.56766e-006 xyz
    dof rx ry rz
  end
  begin
    id 9
    name RightShoulderDummy
    direction -0.98348 0.17941 -0.0240696
    length 3.59882
    axis -0.001389 0.00012144 6.56766e-006 xyz
  end
  begin
    id 10
    name RightShoulder
    direction -0.978693 0.204882 0.0135597
    length 2.70001
    axis 0.215806 0.000203631 -0.00679732 xyz
    dof rx ry rz
  end
  begin
    id 11
    name RightArm
    direction -1 3.85509e-006 8.31394e-007
    length 10.2459
    axis -23.2009 -0.134239 -0.964098 xyz
    dof rx ry rz
  end
  begin
    id 12
    name RightForeArm
    direction -1 3.85569e-006 8.3129e-007
    length 8.16799
    axis -9.92322 0.0658061 0.17887 xyz
    dof rx ry rz
  end
  begin
    id 13
    name RightHand
    direction -0.992843 -0.0414604 0.112003
    length 5.28593
    axis -0.00960638 0.00330669 -0.185225 xyz
    dof rx ry rz
  end
  begin
    id 14
    name LeftShoulder1Dummy
    direction 0.983523 0.179172 -0.0240748
    length 3.59866
    axis -0.001389 0.00012144 6.56766e-006 xyz
  end
  begin
    id 15
    name LeftShoulder1
    direction 0.978627 0.205195 0.0135605
    length 2.70019
    axis -0.001389 0.00012144 6.57583e-006 xyz
    dof rx ry rz
  end
  begin
    id 16
    name LeftArm
    direction 1 3.51895e-006 -8.60188e-007
    length 10.2459
    axis -23.1894 0.134785 0.967513 xyz
    dof rx ry rz
  end
  begin
    id 17
    name LeftForeArm
    direction 1 3.51921e-006 -7.32029e-007
    length 8.16799
    axis -9.91835 -0.0656957 -0.177789 xyz
    dof rx ry rz
  end
  begin
    id 18
    name LeftHand
    direction 0.992938 -0.0411636 0.11126
    length 5.32135
    axis -0.00960237 -0.00340661 0.185177 xyz
    dof rx ry rz
  end
  begin
    id 19
    name HEadDummy
    direction 1.01974e-006 0.999861 -0.016675
    length 2.99946
    axis -0.001389 0.00012144 6.56766e-006 xyz
  end
  begin
    id 20
    name HEad
    direction -0.0222689 0.980941 0.193023
    length 5.12695
    axis -0.001389 0.00012144 6.56766e-006 xyz
    dof rx ry rz
  end
  begin
    id 21
    name RightUpLegDummy
    direction -1 2.30186e-007 8.31532e-007
    length 2.93387
    axis 0 0 0 xyz
  end
  begin
    id 22
    name RightUpLeg
    direction -1.82966e-007 -1 1.56832e-007
    length 17.3336
    axis -3.4909 -0.000906625 0.00028951 xyz
    dof rx ry rz
  end
  begin
    id 23
    name RightLeg
    direction -1.82786e-007 -1 -1.80317e-007
    length 14.9995
    axis 3.68513 0.0193739 -0.131021 xyz
    dof rx ry rz
  end
  begin
    id 24
    name RightFoot
    direction 8.31721e-007 -4.63324e-011 1
    length 6.74421
    axis 4.81691e-005 -0.120479 -0.188785 xyz
    dof rx ry rz
  end
  begin
    id 25
    name RightToes
    direction 0.00124746 -0.014064 0.9999
    length 3.85082
    axis 0.000481921 0.542163 -0.142575 xyz
    dof rx ry rz
  end
:hierarchy
  begin
    root LeftUpLegDummy SpineDummy RightUpLegDummy
    LeftUpLegDummy LeftUpLeg
    LeftUpLeg LeftLeg
    LeftLeg LeftFoot
    LeftFoot LeftToes
    SpineDummy Spine
    Spine Spine1
    Spine1 RightShoulderDummy LeftShoulder1Dummy HEadDummy
    RightShoulderDummy RightShoulder
    RightShoulder RightArm
    RightArm RightForeArm
    RightForeArm RightHand
    LeftShoulder1Dummy LeftShoulder1
    LeftShoulder1 LeftArm
    LeftArm LeftForeArm
    LeftForeArm LeftHand
    HEadDummy HEad
    RightUpLegDummy RightUpLeg
    RightUpLeg RightLeg
    RightLeg RightFoot
    RightFoot RightToes
  end

:SAMPLES-PER-SECOND 30
:FULLY-SPECIFIED
:DEGREES
82
root  2.17607 33.6661 -6.82391 6.05062 7.74697 -1.38015
LeftUpLeg  -7.87345 5.81945 10.5467
LeftLeg  14.1296 9.42505 1.72798
LeftFoot  1.86021 0.00255688 0.200844
LeftToes  -25.4516 1.85109e-006 5.31342e-008
Spine  2.1666 1.15459 0.679563
Spine1  3.83915 2.29537 1.22106
RightShoulder  0.189264 6.16704 11.1869
RightArm  -31.9033 -9.59443 69.2406
RightForeArm  47.9092 10.5789 1.8654
RightHand  1.05439 -12.6872 -9.08849
LeftShoulder1  0.0618739 -0.165501 -10.2717
LeftArm  -11.9151 8.26716 -73.251
LeftForeArm  32.5437 -15.5057 -2.79582
LeftHand  0.0298601 1.58697 1.64142
HEad  -16.0361 -11.9994 3.33513
RightUpLeg  -10.417 -6.75558 -3.98817
RightLeg  13.1191 7.36099 1.22165
RightFoot  0.793106 -0.00590872 0.165664
RightToes  -38.1892 -0.205138 -0.307214
83
root  2.21037 33.6587 -6.80819 6.00461 7.7347 -1.39073
LeftUpLeg  -7.83784 5.95427 10.5241
LeftLeg  14.2365 9.27033 1.71764
LeftFoot  1.69476 0.00504988 0.167623
LeftToes  -25.4499 1.85109e-006 5.31342e-008
Spine  2.15949 1.14843 0.668269
Spine1  3.83047 2.28079 1.20279
RightShoulder  0.188176 6.14428 11.1382
RightArm  -32.2055 -9.79914 69.0813
RightForeArm  47.9696 10.5424 1.85869
RightHand  1.06015 -12.6941 -9.13468
LeftShoulder1  0.0615968 -0.105795 -10.3298
LeftArm  -12.2594 8.60017 -73.0196
LeftForeArm  32.6969 -15.1528 -2.72892
LeftHand  0.031989 1.57274 1.9517
HEad  -15.9412 -12.0121 3.25012
RightUpLeg  -10.3729 -6.63754 -4.04029
RightLeg  13.1866 7.27986 1.21704
RightFoot  0.768725 -0.00437072 0.16183
RightToes  -38.352 -0.204948 -0.307168
84
root  2.24537 33.6534 -6.79403 5.94694 7.72849 -1.38467
LeftUpLeg  -7.77522 6.031 10.4887
LeftLeg  14.3105 9.15243 1.70813
LeftFoot  1.56604 0.00680119 0.143373
LeftToes  -25.5197 1.85109e-006 5.31342e-008
Spine  2.15621 1.13938 0.651091
Spine1  3.83086 2.26202 1.17414
RightShoulder  0.185595 6.13888 11.1215
RightArm  -32.306 -10.0943 68.9674
RightForeArm  47.7717 10.7369 1.89436
RightHand  1.02696 -12.604 -8.90448
LeftShoulder1  0.0612816 -0.162087 -10.3678
LeftArm  -12.9524 9.02483 -72.7622
LeftForeArm  32.9912 -14.8957 -2.68022
LeftHand  0.0373845 1.5064 2.61492
HEad  -15.8839 -12.0341 3.17899
RightUpLeg  -10.3011 -6.55135 -4.10839
RightLeg  13.2166 7.18149 1.20453
RightFoot  0.759251 -0.0026752 0.156958
RightToes  -38.5746 -0.204753 -0.306946
85
root  2.28493 33.6486 -6.77644 5.92221 7.68564 -1.44228
LeftUpLeg  -7.61285 5.70231 10.4875
LeftLeg  14.1504 9.46409 1.7386
LeftFoot  1.46143 0.00720307 0.137224
LeftToes  -25.34 1.85109e-006 5.31342e-008
Spine  2.13556 1.15991 0.653363
Spine1  3.80523 2.30382 1.18408
RightShoulder  0.179323 5.99591 11.0734
RightArm  -32.2609 -10.4119 68.9947
RightForeArm  47.2089 11.0606 1.95423
RightHand  1.03128 -12.6438 -8.91388
LeftShoulder1  0.0609053 -0.0886796 -10.347
LeftArm  -13.411 9.34629 -72.5643
LeftForeArm  33.675 -14.7127 -2.64524
LeftHand  0.0400863 1.72898 2.98073
HEad  -15.8705 -12.1025 3.01057
RightUpLeg  -10.2292 -6.45753 -4.12042
RightLeg  13.1828 7.14118 1.1935
RightFoot  0.706885 -0.000934223 0.152816
RightToes  -38.3465 -0.204539 -0.306504
86
root  2.30175 33.6533 -6.78017 5.90333 7.72309 -1.38795
LeftUpLeg  -7.64665 5.8296 10.4233
LeftLeg  14.2341 9.27194 1.71753
LeftFoot  1.49098 0.00690101 0.138834
LeftToes  -25.4395 1.85109e-006 5.31342e-008
Spine  2.1422 1.14543 0.610817
Spine1  3.82254 2.26829 1.1239
RightShoulder  0.1736 5.86971 10.9699
RightArm  -32.1174 -10.7698 69.2353
RightForeArm  46.126 11.5864 2.05199
RightHand  1.00828 -12.6973 -8.66931
LeftShoulder1  0.0604451 -0.0410072 -10.4229
LeftArm  -13.8457 9.50973 -72.1186
LeftForeArm  33.7351 -14.4349 -2.59302
LeftHand  0.038085 1.72369 2.75361
HEad  -15.9433 -12.1746 2.83853
RightUpLeg  -10.197 -6.16883 -4.20504
RightLeg  13.1494 6.79519 1.1319
RightFoot  0.718436 0.000693493 0.1519
RightToes  -38.2033 -0.204292 -0.305796
87
root  2.31524 33.6619 -6.79299 5.90872 7.67091 -1.32321
LeftUpLeg  -7.62424 5.79681 10.3251
LeftLeg  14.1762 9.34991 1.72214
LeftFoot  1.56027 0.00534718 0.156403
LeftToes  -25.3812 1.85109e-006 5.31342e-008
Spine  2.15328 1.17767 0.555048
Spine1  3.85676 2.32614 1.04085
RightShoulder  0.166918 5.82545 10.9094
RightArm  -32.3962 -11.308 69.4786
RightForeArm  44.4582 12.3971 2.20335
RightHand  0.989149 -12.8921 -8.36399
LeftShoulder1  0.0598779 -0.110692 -10.498
LeftArm  -14.173 9.69563 -71.5359
LeftForeArm  33.1321 -14.4146 -2.58968
LeftHand  0.0318269 2.00291 2.11246
HEad  -16.1462 -12.1779 2.64311
RightUpLeg  -10.1944 -6.00926 -4.29698
RightLeg  13.0792 6.69033 1.10614
RightFoot  0.794578 0.00182824 0.160134
RightToes  -38.1955 -0.204231 -0.304776
88
root  2.31598 33.671 -6.81761 5.89571 7.58321 -1.30017
LeftUpLeg  -7.66472 5.98155 10.2916
LeftLeg  14.2357 9.26092 1.71578
LeftFoot  1.60234 0.00414049 0.164773
LeftToes  -25.4083 1.85109e-006 5.31342e-008
Spine  2.18485 1.21128 0.50312
Spine1  3.93229 2.39108 0.95732
RightShoulder  0.159334 5.64435 10.915
RightArm  -33.0462 -11.6693 69.8183
RightForeArm  42.3398 13.1224 2.34032
RightHand  1.02061 -13.2818 -8.37519
LeftShoulder1  0.0591809 -0.0446875 -10.5636
LeftArm  -14.4487 9.79122 -70.9723
LeftForeArm  32.979 -14.5426 -2.6138
LeftHand  0.0291124 2.06036 1.70848
HEad  -16.5185 -12.0363 2.46703
RightUpLeg  -10.1976 -6.04329 -4.32825
RightLeg  12.9896 6.80769 1.11456
RightFoot  0.864913 0.00294185 0.170223
RightToes  -37.8899 -0.202729 -0.303398
89
root  2.30665 33.6824 -6.85363 5.90415 7.3324 -1.30365
LeftUpLeg  -7.73714 5.90079 10.2748
LeftLeg  14.3887 9.57895 1.80048
LeftFoot  1.65935 0.00172302 0.18784
LeftToes  -25.4188 1.85109e-006 5.31342e-008
Spine  2.24973 1.28804 0.460243
Spine1  4.07484 2.54026 0.892666
RightShoulder  0.152844 5.52197 10.8692
RightArm  -33.9413 -11.9338 70.2056
RightForeArm  40.6856 13.8092 2.47013
RightHand  1.05488 -13.615 -8.44546
LeftShoulder1  0.0583313 -0.0125852 -10.6364
LeftArm  -14.578 9.75155 -70.436
LeftForeArm  32.9308 -14.7206 -2.6473
LeftHand  0.0298411 1.94157 1.65378
HEad  -17.1403 -11.7681 2.21174
RightUpLeg  -10.3039 -6.12954 -4.3033
RightLeg  12.9672 7.15623 1.16846
RightFoot  1.00605 0.00337425 0.192445
RightToes  -37.6087 -0.200689 -0.301617
90
root  2.29262 33.6942 -6.91449 5.88887 6.82984 -1.32746
LeftUpLeg  -7.84738 6.24868 10.271
LeftLeg  14.7026 9.75174 1.8877
LeftFoot  1.65382 3.97465e-005 0.195067
LeftToes  -25.4592 1.85109e-006 5.31342e-008
Spine  2.35419 1.409 0.433405
Spine1  4.29283 2.78099 0.851448
RightShoulder  0.149698 5.46423 10.8789
RightArm  -34.6541 -11.9994 70.4677
RightForeArm  39.6769 14.3744 2.57704
RightHand  1.05812 -13.6373 -8.45789
LeftShoulder1  0.057306 0.0446206 -10.7666
LeftArm  -14.6407 9.58853 -69.9234
LeftForeArm  32.6952 -14.9409 -2.68896
LeftHand  0.03016 1.93842 1.58894
HEad  -17.8349 -11.3706 1.99068
RightUpLeg  -10.5503 -6.2999 -4.26743
RightLeg  13.1013 7.85462 1.30058
RightFoot  1.16097 0.00320854 0.22554
RightToes  -37.1245 -0.197822 -0.299385
